<svg xmlns="http://www.w3.org/2000/svg" viewBox="0 0 430 210" role="img" aria-label="Currículo digital">
  <rect width="430" height="210" fill="none"/>
  <circle cx="185" cy="104" r="88" fill="#eef3fa"/>
  <rect x="210" y="64" width="88" height="88" rx="5" fill="#0f477f"/>
  <path d="M225 80h52M225 96h40M225 112h48M225 128h35" stroke="#61b6ff" stroke-width="3"/>
  <path d="M99 78c-17 1-30 17-29 35 1 17 16 31 33 30 17-1 31-16 30-33-1-18-15-32-34-32z" fill="#ffd2a6"/>
  <path d="M72 87c16-29 55-18 62 10-18-7-36-6-62-10z" fill="#d66f2f"/>
  <path d="M63 160c10-30 65-33 83 0z" fill="#2d80c4"/>
  <circle cx="165" cy="88" r="23" fill="#ffd2a6"/>
  <path d="M144 84c9-25 45-22 48 2-11-4-25-6-48-2z" fill="#1b2b43"/>
  <path d="M132 160c8-31 64-31 80 0z" fill="#004a94"/>
  <path d="M108 160h208" stroke="#004a94" stroke-width="3" stroke-linecap="round"/>
  <path d="M320 62h55v98h-55z" fill="#ffffff" stroke="#0f477f" stroke-width="3"/>
  <path d="M333 80h30M333 98h23M333 116h30M333 134h18" stroke="#b4b4b4" stroke-width="4" stroke-linecap="round"/>
  <rect x="144" y="34" width="48" height="31" rx="6" fill="#2d80c4"/>
  <text x="168" y="56" fill="#fff" text-anchor="middle" font-family="Arial" font-size="18" font-weight="700">{}</text>
  <rect x="247" y="27" width="54" height="36" rx="6" fill="#2d80c4"/>
  <text x="274" y="51" fill="#fff" text-anchor="middle" font-family="Arial" font-size="18" font-weight="700">ID</text>
  <circle cx="101" cy="48" r="11" fill="#ff8b3d"/>
  <circle cx="212" cy="31" r="9" fill="#ffcf57"/>
</svg>
