<svg xmlns="http://www.w3.org/2000/svg" viewBox="0 0 64 64">
  <path fill="#ffffff" d="M32 6C17.6 6 6 17.7 6 32.2c0 11.5 7.4 21.3 17.7 24.8 1.3.2 1.8-.6 1.8-1.3v-5c-7.2 1.6-8.7-3.1-8.7-3.1-1.2-3-2.9-3.8-2.9-3.8-2.4-1.6.2-1.6.2-1.6 2.6.2 4 2.7 4 2.7 2.3 4 6.2 2.9 7.7 2.2.2-1.7.9-2.9 1.7-3.5-5.8-.7-11.9-2.9-11.9-13 0-2.9 1-5.2 2.7-7.1-.3-.7-1.2-3.4.3-7 0 0 2.2-.7 7.2 2.7 2.1-.6 4.3-.9 6.5-.9s4.4.3 6.5.9c5-3.4 7.2-2.7 7.2-2.7 1.5 3.6.6 6.3.3 7 1.7 1.9 2.7 4.2 2.7 7.1 0 10.1-6.1 12.3-11.9 13 .9.8 1.8 2.4 1.8 4.8v7.2c0 .7.5 1.5 1.8 1.3A26.2 26.2 0 0 0 58 32.2C58 17.7 46.4 6 32 6z"/>
</svg>
